<?xml version="1.0" encoding="iso-8859-1"?>
<!-- Generator: Adobe Illustrator 17.1.0, SVG Export Plug-In . SVG Version: 6.00 Build 0)  -->
<!DOCTYPE svg PUBLIC "-//W3C//DTD SVG 1.1//EN" "http://www.w3.org/Graphics/SVG/1.1/DTD/svg11.dtd">
<svg version="1.1" id="Capa_1" xmlns="http://www.w3.org/2000/svg" xmlns:xlink="http://www.w3.org/1999/xlink" x="0px" y="0px"
	 viewBox="0 0 512 512" style="enable-background:new 0 0 512 512;" xml:space="preserve">
<path d="M497.569,248.155l-32.156-6.432c-3.393-0.679-9.187-2.918-12.156-4.7l-66.281-39.769c-5.803-3.48-14.674-4.454-21.095-2.315
	l-14.104,4.701c-0.292-1.162-0.585-2.115-0.876-2.793c-0.54-1.259-1.365-2.307-2.366-3.103c3.329-4.577,4.894-10.248,4.339-16.045
	c-0.697-7.286-4.584-13.789-10.664-17.842l-20.852-13.901L344,123.313c4.636-4.636,8-12.758,8-19.313V40c0-2.277,1.703-6.39,3.313-8
	l18.343-18.343c3.124-3.124,3.125-8.189,0-11.314c-3.123-3.122-8.188-3.122-11.313,0L344,20.685c-4.636,4.636-8,12.759-8,19.314v64
	c0,2.277-1.703,6.389-3.313,7.999l-24.906,24.906l-21.568-14.378C287.365,119.227,288,115.687,288,112
	c0-8.264-3.149-15.806-8.31-21.49l31.466-62.931c1.976-3.952,0.374-8.758-3.578-10.733c-3.952-1.976-8.757-0.373-10.733,3.577
	l-30.63,61.26C263.004,80.597,259.572,80,256,80s-7.005,0.597-10.215,1.682l-30.63-61.26c-1.975-3.951-6.78-5.553-10.733-3.577
	c-3.952,1.976-5.554,6.781-3.578,10.733l31.466,62.931C227.149,96.193,224,103.735,224,112c0,3.688,0.635,7.228,1.787,10.527
	l-21.568,14.378l-24.906-24.906c-1.61-1.61-3.313-5.722-3.313-7.999V40c0-6.556-3.364-14.679-8-19.314L149.656,2.342
	c-3.124-3.123-8.189-3.123-11.313,0c-3.125,3.125-3.124,8.19,0,11.314L156.686,32c1.61,1.61,3.313,5.723,3.313,8v64
	c0,6.556,3.364,14.678,8,19.313l22.642,22.643l-20.852,13.901c-6.08,4.053-9.967,10.556-10.664,17.842
	c-0.555,5.797,1.009,11.468,4.339,16.045c-1.001,0.797-1.826,1.845-2.366,3.104c-0.291,0.678-0.584,1.631-0.876,2.793l-14.103-4.701
	c-6.419-2.139-15.292-1.166-21.096,2.315l-66.28,39.769c-2.97,1.782-8.764,4.021-12.158,4.7l-32.155,6.432
	c-4.333,0.866-7.143,5.081-6.276,9.414c0.761,3.803,4.101,6.433,7.836,6.433c0.52,0,1.048-0.052,1.577-0.157l32.154-6.432
	c5.246-1.049,12.663-3.916,17.253-6.669l66.28-39.769c1.766-1.06,5.85-1.509,7.804-0.856l16.41,5.471
	c0.092,0.031,0.186,0.05,0.278,0.077c-1.143,10.748-2.046,25.117-2.387,41.466l-46.263,15.862
	c-7.762,2.66-13.02,11.452-12.23,20.451l14.325,163.306c0.266,3.032-1.445,7.6-2.98,9.073l-33.753,32.403
	c-3.187,3.061-3.291,8.125-0.23,11.312c1.571,1.637,3.669,2.46,5.772,2.46c1.993,0,3.988-0.74,5.54-2.229l33.753-32.404
	c5.221-5.012,8.518-14.271,7.838-22.014l-14.325-163.306c-0.17-1.938,1.021-3.665,1.48-3.918l40.933-14.034
	c0.036,8.647,0.234,17.636,0.638,26.772c2.05,46.373,9.979,109.971,36.105,149.6C208.382,475.372,229.927,488,256,488
	s47.618-12.628,64.037-37.532c26.126-39.629,34.055-103.227,36.105-149.6c0.404-9.137,0.602-18.126,0.638-26.773l40.868,14.009
	c0.524,0.279,1.715,2.007,1.545,3.944l-14.325,163.306c-0.679,7.743,2.618,17.002,7.838,22.015l33.753,32.403
	c1.551,1.488,3.547,2.229,5.54,2.229c2.102,0,4.201-0.823,5.772-2.46c3.06-3.187,2.957-8.251-0.23-11.312l-33.753-32.402
	c-1.536-1.475-3.247-6.042-2.981-9.074l14.325-163.306c0.789-8.999-4.469-17.791-12.229-20.451l-46.264-15.862
	c-0.341-16.349-1.244-30.719-2.387-41.466c0.093-0.027,0.186-0.046,0.278-0.077l16.411-5.471c1.955-0.652,6.038-0.203,7.803,0.856
	l66.281,39.769c4.59,2.753,12.007,5.62,17.251,6.669l32.155,6.432c0.529,0.105,1.057,0.157,1.577,0.157
	c3.735-0.001,7.076-2.63,7.836-6.433C504.711,253.236,501.901,249.021,497.569,248.155z M272,112c0,8.822-7.178,16-16,16
	s-16-7.178-16-16s7.178-16,16-16S272,103.177,272,112z M175.052,179.224c0.237-2.476,1.554-4.683,3.612-6.055l56.009-37.338
	C240.339,140.906,247.813,144,256,144c8.186,0,15.661-3.094,21.326-8.168l56.009,37.338c2.059,1.372,3.375,3.579,3.612,6.055
	c0.127,1.335,0.022,3.892-2.122,6.008C315.018,204.786,286.287,216,256,216s-59.018-11.214-78.826-30.768
	C175.031,183.116,174.925,180.559,175.052,179.224z M305.014,444.107C291.833,462.875,275.801,472,256,472
	s-35.833-9.124-49.014-27.893c-3.407-4.852-7.028-10.978-10.608-18.673c9.472-2.004,22.244-6.438,33.963-14.246
	c8.958-5.969,18.914-14.976,25.659-28.005c6.745,13.029,16.701,22.036,25.659,28.005c11.719,7.809,24.491,12.242,33.963,14.246
	C312.042,433.129,308.421,439.255,305.014,444.107z M340.008,303.345c-2.429,49.166-9.757,83.344-18.222,106.988
	c-7.148-1.137-19.685-4.751-31.255-12.461C272.926,386.143,264,369.616,264,348.75V256c0-4.418-3.582-8-8-8s-8,3.582-8,8v92.75
	c0,20.866-8.926,37.394-26.531,49.123c-11.57,7.709-24.107,11.323-31.255,12.461c-8.465-23.644-15.793-57.823-18.222-106.988
	c-2.365-47.862,1.24-88.276,3.368-98.417C197.319,222.249,226.041,232,256,232s58.68-9.751,80.64-27.072
	C338.768,215.07,342.373,255.484,340.008,303.345z"/>
<g>
</g>
<g>
</g>
<g>
</g>
<g>
</g>
<g>
</g>
<g>
</g>
<g>
</g>
<g>
</g>
<g>
</g>
<g>
</g>
<g>
</g>
<g>
</g>
<g>
</g>
<g>
</g>
<g>
</g>
</svg>
