<?xml version="1.0" encoding="iso-8859-1"?>
<!-- Generator: Adobe Illustrator 19.1.0, SVG Export Plug-In . SVG Version: 6.00 Build 0)  -->
<svg version="1.1" id="Capa_1" xmlns="http://www.w3.org/2000/svg" xmlns:xlink="http://www.w3.org/1999/xlink" x="0px" y="0px"
	 viewBox="0 0 268.393 268.393" style="enable-background:new 0 0 268.393 268.393;" xml:space="preserve">
<g>
	<path d="M231,93.196h-29.4c-2.52,0-4.2,1.682-4.2,4.205c0,2.523,1.68,4.205,4.2,4.205H231c2.52,0,4.2-1.682,4.2-4.205
		C235.2,94.878,233.52,93.196,231,93.196z"/>
	<path d="M231,126.838h-29.4c-2.52,0-4.2,1.682-4.2,4.205s1.68,4.205,4.2,4.205H231c2.52,0,4.2-1.682,4.2-4.205
		S233.52,126.838,231,126.838z"/>
	<path d="M231,160.479h-29.4c-2.52,0-4.2,1.682-4.2,4.205s1.68,4.205,4.2,4.205H231c2.52,0,4.2-1.682,4.2-4.205
		S233.52,160.479,231,160.479z"/>
	<path d="M231,194.12h-29.4c-2.52,0-4.2,1.682-4.2,4.205c0,2.523,1.68,4.205,4.2,4.205H231c2.52,0,4.2-1.682,4.2-4.205
		C235.2,195.802,233.52,194.12,231,194.12z"/>
	<path d="M176.4,93.196H147c-2.52,0-4.2,1.682-4.2,4.205c0,2.523,1.68,4.205,4.2,4.205h29.4c2.52,0,4.2-1.682,4.2-4.205
		C180.6,94.878,178.92,93.196,176.4,93.196z"/>
	<path d="M176.4,126.838H147c-2.52,0-4.2,1.682-4.2,4.205s1.68,4.205,4.2,4.205h29.4c2.52,0,4.2-1.682,4.2-4.205
		S178.92,126.838,176.4,126.838z"/>
	<path d="M121.8,93.196H92.4c-2.52,0-4.2,1.682-4.2,4.205c0,2.523,1.68,4.205,4.2,4.205h29.4c2.52,0,4.2-1.682,4.2-4.205
		C126,94.878,124.32,93.196,121.8,93.196z"/>
	<path d="M121.8,126.838H92.4c-2.52,0-4.2,1.682-4.2,4.205s1.68,4.205,4.2,4.205h29.4c2.52,0,4.2-1.682,4.2-4.205
		S124.32,126.838,121.8,126.838z"/>
	<path d="M67.2,93.196H37.8c-2.52,0-4.2,1.682-4.2,4.205c0,2.523,1.68,4.205,4.2,4.205h29.4c2.52,0,4.2-1.682,4.2-4.205
		C71.4,94.878,69.72,93.196,67.2,93.196z"/>
	<path d="M67.2,126.838H37.8c-2.52,0-4.2,1.682-4.2,4.205s1.68,4.205,4.2,4.205h29.4c2.52,0,4.2-1.682,4.2-4.205
		S69.72,126.838,67.2,126.838z"/>
	<path d="M67.2,160.479H37.8c-2.52,0-4.2,1.682-4.2,4.205s1.68,4.205,4.2,4.205h29.4c2.52,0,4.2-1.682,4.2-4.205
		S69.72,160.479,67.2,160.479z"/>
	<path d="M67.2,194.12H37.8c-2.52,0-4.2,1.682-4.2,4.205c0,2.523,1.68,4.205,4.2,4.205h29.4c2.52,0,4.2-1.682,4.2-4.205
		C71.4,195.802,69.72,194.12,67.2,194.12z"/>
	<path d="M244.02,25.914h-8.82V13.298c0-2.523-1.68-4.205-4.2-4.205s-4.2,1.682-4.2,4.205v12.615H189V13.298
		c0-2.523-1.68-4.205-4.2-4.205c-2.52,0-4.2,1.682-4.2,4.205v12.615h-37.8V13.298c0-2.523-1.68-4.205-4.2-4.205
		c-2.52,0-4.2,1.682-4.2,4.205v12.615H96.6V13.298c0-2.523-1.68-4.205-4.2-4.205c-2.52,0-4.2,1.682-4.2,4.205v12.615h-42V13.298
		c0-2.523-1.68-4.205-4.2-4.205s-4.2,1.682-4.2,4.205v12.615h-9.24C13.86,25.914,0,39.791,0,54.509v156.432
		c0,15.559,14.7,25.231,28.56,25.231h63c10.08,13.877,26.04,23.128,44.52,23.128s34.86-9.251,44.52-23.128h63
		c14.7,0,24.78-10.092,24.78-24.81V54.509C268.8,40.632,259.14,25.914,244.02,25.914z M136.08,250.89
		c-25.62,0-46.62-21.026-46.62-46.677s21-46.677,46.62-46.677s46.62,21.026,46.62,46.677S161.7,250.89,136.08,250.89z
		 M244.02,227.761h-58.38c3.36-7.149,5.46-15.139,5.46-23.128c0-13.877-5.04-26.072-13.44-35.744c1.68-0.421,2.94-2.103,2.94-3.785
		c0-2.523-1.68-4.205-4.2-4.205h-7.56c-9.24-6.728-20.58-10.933-32.76-10.933c-12.6,0-24.36,4.205-33.6,11.354
		c-0.42-0.421-0.84-0.841-1.68-0.841h-8.4c-2.52,0-4.2,1.682-4.2,4.205s1.68,4.205,4.2,4.205h2.1
		c-7.98,9.672-13.02,21.867-13.02,35.744c0,8.41,2.1,16.4,5.46,23.128H28.56c-9.66,0-20.16-6.308-20.16-16.4V67.965h197.4
		c2.52,0,4.2-1.682,4.2-4.205c0-2.523-1.68-4.205-4.2-4.205H8.4v-5.046c0-10.092,10.08-20.185,20.16-20.185h9.24v12.615
		c0,2.523,1.68,4.205,4.2,4.205s4.2-1.682,4.2-4.205V34.324h42v12.615c0,2.523,1.68,4.205,4.2,4.205c2.52,0,4.2-1.682,4.2-4.205
		V34.324h37.8v12.615c0,2.523,1.68,4.205,4.2,4.205c2.52,0,4.2-1.682,4.2-4.205V34.324h37.8v12.615c0,2.523,1.68,4.205,4.2,4.205
		c2.52,0,4.2-1.682,4.2-4.205V34.324h37.8v12.615c0,2.523,1.68,4.205,4.2,4.205s4.2-1.682,4.2-4.205V34.324h8.82
		c10.08,0,16.38,10.513,16.38,20.185v5.046h-21c-2.52,0-4.2,1.682-4.2,4.205c0,2.523,1.68,4.205,4.2,4.205h21v143.396
		C260.4,221.454,254.1,227.761,244.02,227.761z"/>
	<path d="M169.26,184.869c-1.68-1.682-4.2-1.682-5.88,0l-30.66,30.698l-17.64-17.662c-1.68-1.682-4.2-1.682-5.88,0
		c-1.68,1.682-1.68,4.205,0,5.887l20.58,20.605c0.84,0.841,2.1,1.262,2.94,1.262c0.84,0,2.1-0.421,2.94-1.262l33.6-33.641
		C170.52,189.074,170.52,186.551,169.26,184.869z"/>
</g>
<g>
</g>
<g>
</g>
<g>
</g>
<g>
</g>
<g>
</g>
<g>
</g>
<g>
</g>
<g>
</g>
<g>
</g>
<g>
</g>
<g>
</g>
<g>
</g>
<g>
</g>
<g>
</g>
<g>
</g>
</svg>
