<?xml version="1.0" encoding="iso-8859-1"?>
<!-- Generator: Adobe Illustrator 19.0.0, SVG Export Plug-In . SVG Version: 6.00 Build 0)  -->
<svg version="1.1" id="Capa_1" xmlns="http://www.w3.org/2000/svg" xmlns:xlink="http://www.w3.org/1999/xlink" x="0px" y="0px"
	 viewBox="0 0 422.443 422.443" style="enable-background:new 0 0 422.443 422.443;" xml:space="preserve">
<path id="XMLID_565_" d="M120.382,2.3c-0.516-0.569-2.489-2.3-5.19-2.3c-3.353,0-6.154,2.357-6.84,5.504
	c-4.835,18.374-19.773,37.771-34.223,56.532c-13.433,17.441-26.12,33.916-29.51,48.632c-9.07,39.359,4.657,71.616,36.722,86.289
	c3.582,1.639,7.262,2.99,11.003,4.062v202.045c0,10.686,8.693,19.379,19.38,19.379h6.937c10.685,0,19.378-8.693,19.378-19.379
	V200.922c15.129-4.365,28.613-13.032,37.636-25.36c9.194-12.563,18.225-34.759,9.03-69.158
	C176.369,75.215,154.727,40.19,120.382,2.3z M124.038,403.064c0,2.916-2.463,5.379-5.378,5.379h-6.937
	c-2.916,0-5.38-2.463-5.38-5.379V203.72c5.912,0.614,11.858,0.588,17.694-0.046V403.064z M164.377,167.293
	c-7.909,10.807-20.142,18.097-33.773,21.227c-0.712,0.044-1.395,0.193-2.032,0.434c-8.712,1.721-17.928,1.762-26.901-0.04
	c-0.549-0.193-1.128-0.32-1.729-0.371c-4.355-0.993-8.642-2.425-12.774-4.316c-25.946-11.873-36.481-37.537-28.904-70.415
	c2.704-11.74,14.486-27.037,26.959-43.233c8.035-10.432,16.212-21.049,22.971-31.838v63.343c0,3.866,3.134,7,7,7s7-3.134,7-7V25.659
	C192.18,109.141,175.418,152.207,164.377,167.293z M373.567,95.083h-1.516V7c0-3.866-3.134-7-7-7s-7,3.134-7,7v88.083h-15.118V7
	c0-3.866-3.134-7-7-7s-7,3.134-7,7v88.083h-15.122V7c0-3.866-3.134-7-7-7s-7,3.134-7,7v88.083h-15.118V7c0-3.866-3.134-7-7-7
	s-7,3.134-7,7v88.083h-15.121V7c0-3.866-3.134-7-7-7s-7,3.134-7,7v88.083h-1.514c-3.866,0-7,3.134-7,7v80.603
	c0,10.935,8.897,19.832,19.833,19.832h31.074v200.546c0,10.686,8.693,19.379,19.379,19.379h6.936
	c10.686,0,19.379-8.693,19.379-19.379V202.518h31.075c10.936,0,19.833-8.896,19.833-19.832v-80.603
	C380.567,98.217,377.433,95.083,373.567,95.083z M287.263,109.083h40.901v8.91c0,5.376-4.375,9.751-9.753,9.751
	c-0.91,0-1.817-0.129-2.694-0.383c-2.111-0.613-4.395-0.196-6.154,1.126s-2.795,3.396-2.795,5.597v9.117
	c0,5.377-4.376,9.752-9.754,9.752c-5.377,0-9.751-4.375-9.751-9.752V109.083z M315.659,403.064c0,2.916-2.463,5.379-5.379,5.379
	h-6.936c-2.916,0-5.379-2.463-5.379-5.379V202.518h17.693V403.064z M366.567,182.687c0,3.215-2.616,5.832-5.833,5.832H252.891
	c-3.216,0-5.833-2.616-5.833-5.832v-73.603h26.205v34.118c0,13.097,10.655,23.752,23.753,23.752
	c13.097,0,23.752-10.655,23.752-23.752v-1.573c11.995-1.186,21.396-11.333,21.396-23.635v-8.91h24.402V182.687z"/>
<g>
</g>
<g>
</g>
<g>
</g>
<g>
</g>
<g>
</g>
<g>
</g>
<g>
</g>
<g>
</g>
<g>
</g>
<g>
</g>
<g>
</g>
<g>
</g>
<g>
</g>
<g>
</g>
<g>
</g>
</svg>
