<?xml version="1.0" encoding="iso-8859-1"?>
<!-- Generator: Adobe Illustrator 18.1.1, SVG Export Plug-In . SVG Version: 6.00 Build 0)  -->
<svg version="1.1" id="Capa_1" xmlns="http://www.w3.org/2000/svg" xmlns:xlink="http://www.w3.org/1999/xlink" x="0px" y="0px"
	 viewBox="0 0 41.323 41.323" style="enable-background:new 0 0 41.323 41.323;" xml:space="preserve">
<g>
	<g id="b78_donut">
		<path style="fill:#030104;" d="M20.661,11.481c-5.062,0-9.18,4.118-9.18,9.181c0,5.061,4.117,9.181,9.18,9.181
			s9.179-4.12,9.179-9.181C29.84,15.6,25.724,11.481,20.661,11.481z M20.661,28.344c-4.235,0-7.683-3.445-7.683-7.682
			c0-4.235,3.447-7.683,7.683-7.683c4.24,0,7.684,3.447,7.684,7.683S24.901,28.344,20.661,28.344z"/>
		<path style="fill:#030104;" d="M20.661,0C9.269,0,0,9.268,0,20.662c0,11.391,9.269,20.661,20.661,20.661
			c11.394,0,20.662-9.271,20.662-20.661C41.323,9.268,32.055,0,20.661,0z M20.661,39.825c-10.564,0-19.164-8.596-19.164-19.163
			s8.6-19.166,19.164-19.166c10.569,0,19.165,8.599,19.165,19.166S31.23,39.825,20.661,39.825z"/>
		<circle style="fill:#030104;" cx="19.508" cy="7.619" r="1.155"/>
		<circle style="fill:#030104;" cx="30.589" cy="11.458" r="1.498"/>
		<path style="fill:#030104;" d="M37.078,22.194c-0.688,0-1.248,0.561-1.248,1.249c0,0.69,0.561,1.249,1.248,1.249
			c0.692,0,1.251-0.559,1.251-1.249C38.329,22.755,37.771,22.194,37.078,22.194z"/>
		<path style="fill:#030104;" d="M31.588,27.439c-0.556,0-0.999,0.446-0.999,0.997c0,0.555,0.443,1,0.999,1
			c0.55,0,0.997-0.445,0.997-1C32.585,27.886,32.138,27.439,31.588,27.439z"/>
		<circle style="fill:#030104;" cx="21.754" cy="34.275" r="1.092"/>
		<path style="fill:#030104;" d="M10.86,28.437c-0.689,0-1.247,0.56-1.247,1.249c0,0.687,0.558,1.248,1.247,1.248
			s1.251-0.562,1.251-1.248C12.111,28.996,11.55,28.437,10.86,28.437z"/>
		<path style="fill:#030104;" d="M5.368,18.2c0-0.69-0.559-1.249-1.249-1.249S2.871,17.51,2.871,18.2
			c0,0.687,0.558,1.248,1.248,1.248S5.368,18.887,5.368,18.2z"/>
		<circle style="fill:#030104;" cx="8.115" cy="12.956" r="1.499"/>
		<circle style="fill:#030104;" cx="8.74" cy="22.693" r="1.373"/>
		<path style="fill:#030104;" d="M15.17,33.183c-0.38,0-0.688,0.307-0.688,0.683c0,0.383,0.308,0.689,0.688,0.689
			c0.379,0,0.686-0.307,0.686-0.689C15.855,33.489,15.549,33.183,15.17,33.183z"/>
		<path style="fill:#030104;" d="M28.058,33.183c-0.604,0-1.089,0.488-1.089,1.091c0,0.604,0.485,1.094,1.089,1.094
			c0.606,0,1.095-0.49,1.095-1.094C29.152,33.671,28.664,33.183,28.058,33.183z"/>
		<circle style="fill:#030104;" cx="26.326" cy="9.352" r="1.732"/>
		<circle style="fill:#030104;" cx="13.982" cy="8.337" r="1.873"/>
		<path style="fill:#030104;" d="M23.174,5.808c0.786,0,1.421-0.637,1.421-1.418c0-0.785-0.635-1.422-1.421-1.422
			c-0.783,0-1.42,0.637-1.42,1.422C21.754,5.171,22.391,5.808,23.174,5.808z"/>
		<circle style="fill:#030104;" cx="33.834" cy="13.705" r="0.749"/>
		<path style="fill:#030104;" d="M34.455,18.2c-0.344,0-0.622,0.279-0.622,0.622c0,0.347,0.278,0.626,0.622,0.626
			c0.346,0,0.627-0.279,0.627-0.626C35.082,18.479,34.801,18.2,34.455,18.2z"/>
		<circle style="fill:#030104;" cx="37.89" cy="16.764" r="1.436"/>
		<path style="fill:#030104;" d="M32.026,22.194c-0.521,0-0.941,0.419-0.941,0.937s0.421,0.937,0.941,0.937
			c0.515,0,0.936-0.419,0.936-0.937S32.541,22.194,32.026,22.194z"/>
		<circle style="fill:#030104;" cx="18.492" cy="38.066" r="1.014"/>
		<circle style="fill:#030104;" cx="4.931" cy="25.504" r="0.812"/>
		<circle style="fill:#030104;" cx="9.426" cy="33.87" r="0.687"/>
		<path style="fill:#030104;" d="M27.74,28.437c-0.78,0-1.414,0.634-1.414,1.413s0.634,1.412,1.414,1.412
			c0.777,0,1.412-0.633,1.412-1.412S28.518,28.437,27.74,28.437z"/>
		<path style="fill:#030104;" d="M36.079,28.437c-0.548,0-0.997,0.447-0.997,0.999c0,0.553,0.449,0.998,0.997,0.998
			c0.554,0,0.999-0.445,0.999-0.998C37.078,28.884,36.633,28.437,36.079,28.437z"/>
	</g>
</g>
<g>
</g>
<g>
</g>
<g>
</g>
<g>
</g>
<g>
</g>
<g>
</g>
<g>
</g>
<g>
</g>
<g>
</g>
<g>
</g>
<g>
</g>
<g>
</g>
<g>
</g>
<g>
</g>
<g>
</g>
</svg>
