<?xml version="1.0" encoding="iso-8859-1"?>
<!-- Generator: Adobe Illustrator 18.0.0, SVG Export Plug-In . SVG Version: 6.00 Build 0)  -->
<!DOCTYPE svg PUBLIC "-//W3C//DTD SVG 1.1//EN" "http://www.w3.org/Graphics/SVG/1.1/DTD/svg11.dtd">
<svg version="1.1" id="Capa_1" xmlns="http://www.w3.org/2000/svg" xmlns:xlink="http://www.w3.org/1999/xlink" x="0px" y="0px"
	 viewBox="0 0 346.464 346.464" style="enable-background:new 0 0 346.464 346.464;" xml:space="preserve">
<g>
	<path d="M118.807,110.946c-9.484,0-17.2,7.716-17.2,17.201c0,9.484,7.716,17.201,17.2,17.201s17.201-7.716,17.201-17.201
		C136.008,118.663,128.291,110.946,118.807,110.946z M118.807,136.348c-4.521,0-8.2-3.679-8.2-8.201s3.679-8.201,8.2-8.201
		c4.522,0,8.201,3.679,8.201,8.201S123.329,136.348,118.807,136.348z"/>
	<path d="M237.504,106.981c9.484,0,17.2-7.716,17.2-17.201s-7.716-17.201-17.2-17.201c-9.484,0-17.2,7.716-17.2,17.201
		S228.02,106.981,237.504,106.981z M237.504,81.58c4.521,0,8.2,3.679,8.2,8.201c0,4.522-3.679,8.201-8.2,8.201
		c-4.521,0-8.2-3.679-8.2-8.201C229.304,85.258,232.982,81.58,237.504,81.58z"/>
	<path d="M296.229,23C257.182,7.738,215.958,0,173.701,0C131.075,0,89.53,7.86,50.222,23.363c-2.3,0.907-3.437,3.499-2.547,5.806
		l121.29,314.415c0.669,1.736,2.338,2.88,4.198,2.88c1.86,0,3.529-1.145,4.198-2.88L298.789,28.812
		C299.681,26.5,298.536,23.902,296.229,23z M120.7,193.464c1.542-0.249,3.111-0.376,4.696-0.376
		c16.096,0,29.191,13.089,29.191,29.179c0,9.996-5.113,19.165-13.33,24.485L120.7,193.464z M173.163,329.461l-28.618-74.186
		c11.683-6.774,19.042-19.293,19.042-33.008c0-21.052-17.132-38.179-38.191-38.179c-2.707,0-5.379,0.286-7.988,0.843L72.726,69.103
		c32.237-12.167,66.183-18.349,100.981-18.349c34.455,0,68.08,6.064,100.027,18l-48.094,124.671
		c-3.846-6.991-11.283-11.739-19.81-11.739c-12.459,0-22.596,10.136-22.596,22.596c0,12.459,10.137,22.596,22.596,22.596
		c2.586,0,5.07-0.443,7.386-1.246L173.163,329.461z M205.831,217.877c-7.497,0-13.596-6.099-13.596-13.596
		c0-7.497,6.099-13.596,13.596-13.596s13.596,6.099,13.596,13.596C219.427,211.778,213.328,217.877,205.831,217.877z
		 M276.974,60.357c-32.985-12.335-67.699-18.603-103.267-18.603c-35.911,0-70.946,6.386-104.22,18.953L57.69,30.125
		C94.707,16.106,133.714,9,173.701,9c39.624,0,78.313,6.989,115.067,20.781L276.974,60.357z"/>
	<path d="M192.801,133.962l17.482,7.942c1.089,0.494,2.325,0.536,3.442,0.116c1.117-0.419,2.023-1.265,2.516-2.352
		c4.723-10.396,5.114-22.009,1.102-32.699c-4.012-10.69-11.946-19.179-22.342-23.901c-5.604-2.546-11.545-3.836-17.657-3.836
		c-16.736,0-32.023,9.843-38.942,25.077c-1.028,2.263-0.027,4.931,2.235,5.958l17.483,7.942l-7.051,15.521
		c-4.344,9.561-0.099,20.873,9.463,25.217c2.496,1.134,5.144,1.708,7.868,1.708c7.455,0,14.266-4.385,17.348-11.171L192.801,133.962
		z M177.556,145.761c-1.627,3.581-5.22,5.894-9.154,5.894c-1.432,0-2.827-0.304-4.145-0.903c-5.043-2.291-7.282-8.257-4.992-13.3
		l8.912-19.619c1.028-2.263,0.027-4.931-2.235-5.959l-17.208-7.817c6.116-9.739,16.915-15.827,28.612-15.827
		c4.819,0,9.508,1.02,13.934,3.031c8.207,3.728,14.472,10.429,17.639,18.869c2.634,7.019,2.863,14.541,0.722,21.596l-17.214-7.82
		c-1.089-0.494-2.325-0.536-3.442-0.116c-1.117,0.419-2.022,1.265-2.516,2.351L177.556,145.761z"/>
</g>
<g>
</g>
<g>
</g>
<g>
</g>
<g>
</g>
<g>
</g>
<g>
</g>
<g>
</g>
<g>
</g>
<g>
</g>
<g>
</g>
<g>
</g>
<g>
</g>
<g>
</g>
<g>
</g>
<g>
</g>
</svg>
