<?xml version="1.0" encoding="iso-8859-1"?>
<!-- Generator: Adobe Illustrator 19.0.0, SVG Export Plug-In . SVG Version: 6.00 Build 0)  -->
<svg version="1.1" id="Capa_1" xmlns="http://www.w3.org/2000/svg" xmlns:xlink="http://www.w3.org/1999/xlink" x="0px" y="0px"
	 viewBox="0 0 480.699 480.699" style="enable-background:new 0 0 480.699 480.699;" xml:space="preserve">
<g>
	<path d="M355.698,419.142c4.143,0,7.5-3.358,7.5-7.5v-33.949c0-4.142-3.357-7.5-7.5-7.5s-7.5,3.358-7.5,7.5v33.949
		C348.198,415.784,351.556,419.142,355.698,419.142z"/>
	<path d="M414.448,419.142c4.143,0,7.5-3.358,7.5-7.5v-33.949c0-4.142-3.357-7.5-7.5-7.5s-7.5,3.358-7.5,7.5v33.949
		C406.948,415.784,410.306,419.142,414.448,419.142z"/>
	<path d="M355.698,328.984c4.143,0,7.5-3.358,7.5-7.5v-33.949c0-4.142-3.357-7.5-7.5-7.5s-7.5,3.358-7.5,7.5v33.949
		C348.198,325.626,351.556,328.984,355.698,328.984z"/>
	<path d="M414.448,328.984c4.143,0,7.5-3.358,7.5-7.5v-33.949c0-4.142-3.357-7.5-7.5-7.5s-7.5,3.358-7.5,7.5v33.949
		C406.948,325.626,410.306,328.984,414.448,328.984z"/>
	<path d="M355.698,238.827c4.143,0,7.5-3.358,7.5-7.5v-33.949c0-4.142-3.357-7.5-7.5-7.5s-7.5,3.358-7.5,7.5v33.949
		C348.198,235.469,351.556,238.827,355.698,238.827z"/>
	<path d="M414.448,238.827c4.143,0,7.5-3.358,7.5-7.5v-33.949c0-4.142-3.357-7.5-7.5-7.5s-7.5,3.358-7.5,7.5v33.949
		C406.948,235.469,410.306,238.827,414.448,238.827z"/>
	<path d="M473.199,133.67H304.447V63.728l1.087,0.319c0.705,0.207,1.415,0.305,2.113,0.305c3.244,0,6.235-2.122,7.194-5.392
		c1.165-3.975-1.112-8.142-5.087-9.308l-10.569-3.099c-0.008-0.003-0.016-0.005-0.024-0.007L159.684,5.652
		c-1.379-0.403-2.842-0.403-4.221,0L15.985,46.546c-0.008,0.002-0.016,0.004-0.024,0.007L5.392,49.652
		c-3.975,1.166-6.252,5.333-5.087,9.308c1.166,3.975,5.332,6.251,9.308,5.087l1.087-0.319V467.85c0,4.142,3.357,7.5,7.5,7.5h455
		c4.143,0,7.5-3.358,7.5-7.5V141.17C480.699,137.028,477.342,133.67,473.199,133.67z M200.073,460.35h-85V318.176h85V460.35z
		 M465.699,460.35H304.447v-22.5c0-4.142-3.357-7.5-7.5-7.5s-7.5,3.358-7.5,7.5v22.5h-74.374V310.676c0-4.142-3.357-7.5-7.5-7.5
		h-100c-4.143,0-7.5,3.358-7.5,7.5V460.35H25.699V59.33l131.874-38.665L289.447,59.33v348.52c0,4.142,3.357,7.5,7.5,7.5
		s7.5-3.358,7.5-7.5V148.67h161.252V460.35z"/>
	<path d="M253.073,86.161c-6.004,0-14.057-2.789-22.582-5.741c-11.566-4.005-24.676-8.544-38.621-8.544
		c-16.588,0-27.672,7.406-34.297,15.274c-6.625-7.868-17.709-15.274-34.297-15.274c-13.944,0-27.054,4.54-38.62,8.544
		c-8.526,2.952-16.579,5.741-22.583,5.741c-4.143,0-7.5,3.358-7.5,7.5v138.221c0,4.142,3.357,7.5,7.5,7.5
		c8.527,0,17.738-3.189,27.49-6.566c10.96-3.795,22.292-7.719,33.713-7.719c5.95,0,11.188,1.272,15.568,3.782
		c3.594,2.059,8.177,0.814,10.236-2.78c2.059-3.594,0.814-8.177-2.779-10.236c-6.68-3.826-14.426-5.766-23.025-5.766
		c-13.944,0-27.054,4.54-38.62,8.544c-5.343,1.85-10.5,3.636-15.083,4.711V100.445c6.354-1.128,13.035-3.442,19.99-5.851
		c10.96-3.795,22.292-7.719,33.713-7.719c18.693,0,25.331,12.887,26.797,16.412v93.157c0,4.142,3.357,7.5,7.5,7.5s7.5-3.358,7.5-7.5
		v-93.146c1.506-3.613,8.161-16.423,26.797-16.423c11.422,0,22.754,3.924,33.713,7.719c6.956,2.409,13.637,4.722,19.99,5.851
		v122.907c-4.583-1.075-9.74-2.861-15.082-4.711c-11.566-4.005-24.676-8.544-38.621-8.544c-8.599,0-16.345,1.94-23.024,5.765
		c-3.595,2.059-4.839,6.642-2.78,10.236c2.058,3.594,6.639,4.838,10.235,2.781c4.381-2.509,9.619-3.782,15.569-3.782
		c11.422,0,22.754,3.924,33.713,7.719c9.752,3.377,18.963,6.566,27.49,6.566c4.143,0,7.5-3.358,7.5-7.5V93.661
		C260.573,89.519,257.216,86.161,253.073,86.161z"/>
</g>
<g>
</g>
<g>
</g>
<g>
</g>
<g>
</g>
<g>
</g>
<g>
</g>
<g>
</g>
<g>
</g>
<g>
</g>
<g>
</g>
<g>
</g>
<g>
</g>
<g>
</g>
<g>
</g>
<g>
</g>
</svg>
